<svg width="368.16" height="76.8" viewBox="0 0 368.16 76.8" xmlns="http://www.w3.org/2000/svg">
<g id="svgGroup" stroke-linecap="round" fill-rule="evenodd" font-size="9pt" stroke="#e67878" stroke-width="0.25mm" fill="#ff6f61" style="stroke:#e67878;stroke-width:0.25mm;fill:#ff6f61">
<path d="M 0 54.48 L 3.84 48.08 Q 6.72 50.48 10.32 52 A 18.679 18.679 0 0 0 14.616 53.208 A 25.694 25.694 0 0 0 18.72 53.52 A 22.385 22.385 0 0 0 22.358 53.243 Q 24.296 52.923 25.865 52.235 A 10.96 10.96 0 0 0 27.84 51.12 A 8.224 8.224 0 0 0 30.077 48.796 Q 31.13 47.111 31.196 44.933 A 9.693 9.693 0 0 0 31.2 44.64 A 9.552 9.552 0 0 0 30.93 42.326 A 7.853 7.853 0 0 0 30.24 40.52 A 6.478 6.478 0 0 0 29.28 39.195 Q 28.256 38.082 26.52 37 A 25.684 25.684 0 0 0 24.541 35.898 Q 22.085 34.655 18.4 33.28 Q 12.64 31.04 9.2 28.76 Q 6.015 26.649 4.51 23.99 A 10.642 10.642 0 0 1 4.28 23.56 A 13.333 13.333 0 0 1 3.063 19.823 A 18.342 18.342 0 0 1 2.8 16.64 Q 2.8 12.64 5 9.4 Q 7.2 6.16 11.48 4.2 Q 15.358 2.424 20.714 2.257 A 36.182 36.182 0 0 1 21.84 2.24 Q 26.8 2.24 30.76 3.24 Q 34.72 4.24 38.48 6.08 L 35.68 12.56 A 25.197 25.197 0 0 0 32.379 10.945 A 33.349 33.349 0 0 0 29.32 9.88 Q 25.68 8.8 21.68 8.8 A 21.75 21.75 0 0 0 18.456 9.024 Q 16.75 9.28 15.36 9.829 A 10.093 10.093 0 0 0 13.36 10.88 A 7.921 7.921 0 0 0 11.629 12.452 A 5.887 5.887 0 0 0 10.32 16.24 A 8.372 8.372 0 0 0 10.554 18.257 A 6.849 6.849 0 0 0 11.2 19.92 A 5.529 5.529 0 0 0 12.055 21.06 Q 12.954 22.003 14.473 22.917 A 18.802 18.802 0 0 0 14.68 23.04 A 26.402 26.402 0 0 0 16.453 23.978 Q 18.268 24.86 20.837 25.858 A 104.013 104.013 0 0 0 22.48 26.48 A 64.983 64.983 0 0 1 26.463 28.103 Q 28.409 28.978 30.01 29.884 A 28.403 28.403 0 0 1 32.36 31.36 Q 35.342 33.458 36.902 35.85 A 11.384 11.384 0 0 1 37.52 36.92 A 14.063 14.063 0 0 1 38.913 41.61 A 17.724 17.724 0 0 1 39.04 43.76 A 17.368 17.368 0 0 1 38.506 48.16 A 13.684 13.684 0 0 1 36.44 52.64 Q 33.84 56.32 29.24 58.24 Q 24.64 60.16 18.72 60.16 A 37.893 37.893 0 0 1 12.5 59.67 A 30.439 30.439 0 0 1 8.08 58.6 A 30.565 30.565 0 0 1 3.787 56.854 A 22.746 22.746 0 0 1 0 54.48 Z M 184.16 54.48 L 188 48.08 Q 190.88 50.48 194.48 52 A 18.679 18.679 0 0 0 198.776 53.208 A 25.694 25.694 0 0 0 202.88 53.52 A 22.385 22.385 0 0 0 206.518 53.243 Q 208.456 52.923 210.025 52.235 A 10.96 10.96 0 0 0 212 51.12 A 8.224 8.224 0 0 0 214.237 48.796 Q 215.29 47.111 215.356 44.933 A 9.693 9.693 0 0 0 215.36 44.64 A 9.552 9.552 0 0 0 215.09 42.326 A 7.853 7.853 0 0 0 214.4 40.52 A 6.478 6.478 0 0 0 213.44 39.195 Q 212.416 38.082 210.68 37 A 25.684 25.684 0 0 0 208.701 35.898 Q 206.245 34.655 202.56 33.28 Q 196.8 31.04 193.36 28.76 Q 190.175 26.649 188.67 23.99 A 10.642 10.642 0 0 1 188.44 23.56 A 13.333 13.333 0 0 1 187.223 19.823 A 18.342 18.342 0 0 1 186.96 16.64 Q 186.96 12.64 189.16 9.4 Q 191.36 6.16 195.64 4.2 Q 199.518 2.424 204.874 2.257 A 36.182 36.182 0 0 1 206 2.24 Q 210.96 2.24 214.92 3.24 Q 218.88 4.24 222.64 6.08 L 219.84 12.56 A 25.197 25.197 0 0 0 216.539 10.945 A 33.349 33.349 0 0 0 213.48 9.88 Q 209.84 8.8 205.84 8.8 A 21.75 21.75 0 0 0 202.616 9.024 Q 200.91 9.28 199.52 9.829 A 10.093 10.093 0 0 0 197.52 10.88 A 7.921 7.921 0 0 0 195.789 12.452 A 5.887 5.887 0 0 0 194.48 16.24 A 8.372 8.372 0 0 0 194.714 18.257 A 6.849 6.849 0 0 0 195.36 19.92 A 5.529 5.529 0 0 0 196.215 21.06 Q 197.114 22.003 198.633 22.917 A 18.802 18.802 0 0 0 198.84 23.04 A 26.402 26.402 0 0 0 200.613 23.978 Q 202.428 24.86 204.997 25.858 A 104.013 104.013 0 0 0 206.64 26.48 A 64.983 64.983 0 0 1 210.623 28.103 Q 212.569 28.978 214.17 29.884 A 28.403 28.403 0 0 1 216.52 31.36 Q 219.502 33.458 221.062 35.85 A 11.384 11.384 0 0 1 221.68 36.92 A 14.063 14.063 0 0 1 223.073 41.61 A 17.724 17.724 0 0 1 223.2 43.76 A 17.368 17.368 0 0 1 222.666 48.16 A 13.684 13.684 0 0 1 220.6 52.64 Q 218 56.32 213.4 58.24 Q 208.8 60.16 202.88 60.16 A 37.893 37.893 0 0 1 196.66 59.67 A 30.439 30.439 0 0 1 192.24 58.6 A 30.565 30.565 0 0 1 187.947 56.854 A 22.746 22.746 0 0 1 184.16 54.48 Z M 56.64 59.2 L 49.44 59.2 L 49.44 0 L 56.64 0 L 56.64 24.24 Q 58.88 20.96 62.32 18.8 A 14.058 14.058 0 0 1 68.02 16.792 A 18.076 18.076 0 0 1 70.4 16.64 A 18.58 18.58 0 0 1 74.452 17.054 Q 77.127 17.652 79.076 19.113 A 10.608 10.608 0 0 1 80.92 20.88 A 14.723 14.723 0 0 1 83.803 26.783 Q 84.325 28.896 84.391 31.367 A 27.011 27.011 0 0 1 84.4 32.08 L 84.4 59.2 L 77.2 59.2 L 77.2 32.88 Q 77.2 28.4 75.12 25.68 A 6.736 6.736 0 0 0 70.194 23.002 A 9.583 9.583 0 0 0 69.28 22.96 A 10.584 10.584 0 0 0 63.909 24.453 A 14.068 14.068 0 0 0 62.28 25.56 Q 58.96 28.16 56.64 31.68 L 56.64 59.2 Z M 240.8 59.2 L 233.6 59.2 L 233.6 17.6 L 240.56 17.6 L 240.56 24.56 Q 242.8 21.2 246.28 18.92 A 13.853 13.853 0 0 1 251.964 16.82 A 18.103 18.103 0 0 1 254.56 16.64 A 18.58 18.58 0 0 1 258.612 17.054 Q 261.287 17.652 263.236 19.113 A 10.608 10.608 0 0 1 265.08 20.88 A 14.723 14.723 0 0 1 267.963 26.783 Q 268.485 28.896 268.551 31.367 A 27.011 27.011 0 0 1 268.56 32.08 L 268.56 59.2 L 261.36 59.2 L 261.36 32.88 A 15.412 15.412 0 0 0 261.086 29.887 Q 260.735 28.116 259.935 26.717 A 8.772 8.772 0 0 0 259.24 25.68 A 6.864 6.864 0 0 0 254.219 22.997 A 9.649 9.649 0 0 0 253.36 22.96 A 10.497 10.497 0 0 0 247.88 24.531 A 13.883 13.883 0 0 0 246.4 25.56 Q 243.12 28.16 240.8 31.68 L 240.8 59.2 Z M 337.84 76.8 L 330.64 76.8 L 330.64 28.24 Q 330.64 25.52 329.32 24.36 A 4.575 4.575 0 0 0 327.088 23.302 A 6.392 6.392 0 0 0 325.92 23.2 L 327.44 17.6 A 14.019 14.019 0 0 1 330.822 17.976 Q 335.267 19.083 336.64 23.44 A 9.139 9.139 0 0 1 337.273 22.609 Q 337.98 21.774 339.081 20.782 A 30.848 30.848 0 0 1 339.24 20.64 Q 341.04 19.04 343.72 17.84 A 13.564 13.564 0 0 1 347.367 16.809 A 17.509 17.509 0 0 1 349.84 16.64 Q 354.64 16.64 358.84 19.16 A 17.863 17.863 0 0 1 364.582 24.734 A 21.972 21.972 0 0 1 365.6 26.44 Q 368.048 30.991 368.155 37.406 A 35.421 35.421 0 0 1 368.16 38 A 29.256 29.256 0 0 1 367.598 43.865 A 22.484 22.484 0 0 1 365.6 49.64 A 22.277 22.277 0 0 1 362.453 54.305 A 18.423 18.423 0 0 1 358.92 57.4 Q 354.8 60.16 350 60.16 Q 346.32 60.16 343.12 58.68 A 24.282 24.282 0 0 1 340.387 57.209 Q 339.043 56.364 337.98 55.408 A 14.94 14.94 0 0 1 337.84 55.28 L 337.84 76.8 Z M 178.32 41.36 L 149.2 41.36 Q 149.871 46.801 152.833 50.02 A 11.984 11.984 0 0 0 153.28 50.48 A 11.315 11.315 0 0 0 159.38 53.529 A 16.017 16.017 0 0 0 162.16 53.76 Q 165.76 53.76 168.64 53 Q 171.52 52.24 174.16 51.04 L 175.84 57.2 A 32.616 32.616 0 0 1 172.372 58.501 A 41.49 41.49 0 0 1 169.36 59.32 A 31.131 31.131 0 0 1 165.287 59.975 A 41.62 41.62 0 0 1 161.28 60.16 Q 152.32 60.16 147.08 54.44 Q 141.84 48.72 141.84 38.4 A 28.287 28.287 0 0 1 142.506 32.143 A 23.072 23.072 0 0 1 144.2 27.24 A 19.713 19.713 0 0 1 148.213 21.575 A 18.31 18.31 0 0 1 150.8 19.48 A 16.839 16.839 0 0 1 159.007 16.703 A 20.964 20.964 0 0 1 160.64 16.64 A 22.843 22.843 0 0 1 165.016 17.037 Q 168.187 17.656 170.6 19.24 Q 174.56 21.84 176.56 26.24 A 22.548 22.548 0 0 1 178.501 34.131 A 26.748 26.748 0 0 1 178.56 35.92 Q 178.56 38.72 178.32 41.36 Z M 309.44 20.96 L 309.44 17.6 L 316 17.6 L 316 49.12 A 9.72 9.72 0 0 0 316.081 50.429 Q 316.287 51.934 317.01 52.696 A 2.372 2.372 0 0 0 317.48 53.08 Q 318.96 54 320.72 54 L 319.2 59.6 A 14.178 14.178 0 0 1 315.788 59.222 Q 311.279 58.102 310.003 53.664 A 10.872 10.872 0 0 1 309.92 53.36 A 17.046 17.046 0 0 1 307.432 56.101 A 22.799 22.799 0 0 1 304.92 58.04 A 11.943 11.943 0 0 1 300.957 59.723 Q 299.343 60.102 297.462 60.152 A 21.764 21.764 0 0 1 296.88 60.16 Q 291.68 60.16 287.44 57.52 A 18.358 18.358 0 0 1 281.509 51.499 A 22.338 22.338 0 0 1 280.68 50.04 A 21.782 21.782 0 0 1 278.576 43.686 A 29.315 29.315 0 0 1 278.16 38.64 A 26.514 26.514 0 0 1 278.957 32.025 A 22.374 22.374 0 0 1 280.68 27.44 Q 283.2 22.48 287.64 19.56 A 17.838 17.838 0 0 1 296.596 16.675 A 21.91 21.91 0 0 1 297.84 16.64 Q 301.44 16.64 304.36 17.88 A 20.801 20.801 0 0 1 307.789 19.715 A 17.682 17.682 0 0 1 309.44 20.96 Z M 107.409 59.089 A 21.771 21.771 0 0 0 114.32 60.16 A 24.581 24.581 0 0 0 116.14 60.094 A 20.206 20.206 0 0 0 124.92 57.44 Q 129.6 54.72 132.32 49.8 A 21.004 21.004 0 0 0 134.442 44.087 A 27.347 27.347 0 0 0 135.04 38.24 Q 135.04 31.6 132.28 26.76 Q 129.52 21.92 124.84 19.28 A 19.879 19.879 0 0 0 121.127 17.658 A 22.19 22.19 0 0 0 114.32 16.64 A 25.06 25.06 0 0 0 113.056 16.672 A 20.935 20.935 0 0 0 103.76 19.28 Q 99.04 21.92 96.32 26.8 Q 93.6 31.68 93.6 38.4 Q 93.6 44.8 96.28 49.72 Q 98.96 54.64 103.68 57.4 A 19.647 19.647 0 0 0 107.409 59.089 Z M 114.32 53.76 A 14.993 14.993 0 0 0 118.501 53.207 A 11.2 11.2 0 0 0 124.16 49.48 A 15.042 15.042 0 0 0 127.215 43.008 A 21.684 21.684 0 0 0 127.68 38.4 A 17.101 17.101 0 0 0 126.7 32.571 A 16.011 16.011 0 0 0 125.92 30.76 Q 124.16 27.28 121.16 25.16 Q 118.16 23.04 114.32 23.04 A 15.399 15.399 0 0 0 110.139 23.577 A 11.229 11.229 0 0 0 104.48 27.2 A 14.303 14.303 0 0 0 101.541 33.099 Q 101.014 35.225 100.965 37.72 A 26.295 26.295 0 0 0 100.96 38.24 Q 100.96 42.4 102.72 45.96 A 15.55 15.55 0 0 0 105.544 49.992 A 14.102 14.102 0 0 0 107.48 51.64 Q 110.48 53.76 114.32 53.76 Z M 308.8 48.56 L 308.8 26.24 Q 306.64 24.72 304.04 23.8 Q 301.44 22.88 298.56 22.88 A 12.74 12.74 0 0 0 294.583 23.483 A 11.219 11.219 0 0 0 291.8 24.84 A 13.041 13.041 0 0 0 287.785 29.179 A 15.97 15.97 0 0 0 287.2 30.28 Q 285.52 33.76 285.52 38.4 Q 285.52 42.88 287.2 46.36 A 14.081 14.081 0 0 0 289.684 49.997 A 12.557 12.557 0 0 0 291.84 51.8 Q 294.8 53.76 298.48 53.76 Q 301.52 53.76 304.24 52.28 Q 306.96 50.8 308.8 48.56 Z M 337.84 28.32 L 337.84 48.8 Q 339.92 50.96 342.64 52.36 Q 345.36 53.76 348.56 53.76 Q 353.915 53.76 357.293 49.613 A 13.906 13.906 0 0 0 357.4 49.48 A 15.033 15.033 0 0 0 360.195 43.636 Q 360.724 41.484 360.791 38.967 A 27.643 27.643 0 0 0 360.8 38.24 A 22.438 22.438 0 0 0 360.482 34.366 Q 360.087 32.112 359.2 30.247 A 13.87 13.87 0 0 0 359.08 30 Q 357.36 26.56 354.52 24.72 Q 351.68 22.88 348.24 22.88 A 11.793 11.793 0 0 0 343.739 23.73 A 11.243 11.243 0 0 0 342.04 24.6 A 18.843 18.843 0 0 0 340.015 26.044 Q 339.025 26.86 338.297 27.732 A 10.352 10.352 0 0 0 337.84 28.32 Z M 149.12 35.52 L 171.92 35.52 Q 171.92 31.104 170.317 28.166 A 9.938 9.938 0 0 0 168.88 26.16 A 9.991 9.991 0 0 0 163.311 23.139 A 14.716 14.716 0 0 0 160.48 22.88 A 10.864 10.864 0 0 0 156.391 23.628 A 10.019 10.019 0 0 0 152.8 26.12 A 12.132 12.132 0 0 0 150.448 29.871 Q 149.773 31.519 149.402 33.536 A 25.617 25.617 0 0 0 149.12 35.52 Z" vector-effect="non-scaling-stroke"/>
</g>
</svg>